# xmcd
#
# Track frame offsets:
#	150
#	15397
#	31007
#	45863
#	64721
#	81592
#	101316
#	115708
#	132624
#	146498
#	163171
#	179819
#	204584
#	223031
#	241465
#	257104
#	271363
#	290916
#	307945
#
# Disc length: 4342 seconds
#
# Revision: 1
# Processed by: cddbd v1.5.2PL0 Copyright (c) Steve Scherf et al.
# Submitted via: audiograbber 1.83.01
#
DISCID=1810f413
DTITLE=Country Vol.32 - TTG 203
DYEAR=1900
DGENRE=
TTITLE0=McComas,Brian - 99.9 % Sure
TTITLE1=Trick Pony - A Boy Like You
TTITLE2=Dixie Chicks - Am I the Only One
TTITLE3=Evans, Sara - Backseat Of A Greyhound Bus
TTITLE4=Paisley,Brad - Celebrity
TTITLE5=Tritt, Travis - Country Ain't Country
TTITLE6=Shelton,Blake - Georgia In A Jug
TTITLE7=Keller,Joanie - If Heartaches Had Wings
TTITLE8=McHayes - It Doesn't Mean I Don't Love You
TTITLE9=Lonestar - My Front Porch Looking In
TTITLE10=Tucker, Tanya - Old Weakness
TTITLE11=Hill,Faith - One
TTITLE12=Holy,Steve - Rock A Bye Heart
TTITLE13=Montgomery Gentry - Speed
TTITLE14=Strait, George - Tell Me Something Bad About Tulsa
TTITLE15=Byrd, Tracy - The Truth About Men
TTITLE16=Adkins, Trace - Then They Do
TTITLE17=Coffey,Kellie - Whatever It Takes
TTITLE18=Wills,Mark - When You Think Of Me
EXTD=
EXTT0=
EXTT1=
EXTT2=
EXTT3=
EXTT4=
EXTT5=
EXTT6=
EXTT7=
EXTT8=
EXTT9=
EXTT10=
EXTT11=
EXTT12=
EXTT13=
EXTT14=
EXTT15=
EXTT16=
EXTT17=
EXTT18=
PLAYORDER=
